<svg xmlns="http://www.w3.org/2000/svg" viewBox="0 0 506.05 316.74"><g id="Layer_2" data-name="Layer 2"><g id="Layer_1-2" data-name="Layer 1"><path d="M56.43,251.73l-3.3,6.6-3.4,6.7h-7.4l20-40,13.35,26.7h-7.5L62.33,240l-5.9,11.75ZM79,258.38,82.33,265H74.88l-3.3-6.65H79Z" transform="translate(-2.12)"/><path d="M98.3,258.33h20V265H91.65ZM91.65,225H98.3v24.25L91.65,256V225Z" transform="translate(-2.12)"/><path d="M151.85,257.18a13.94,13.94,0,0,0,4.5-3.35L163,256a18.71,18.71,0,0,1-3.2,3.7,20.37,20.37,0,0,1-4,2.85,17.29,17.29,0,0,1-4.55,1.8,18.29,18.29,0,0,1-5,.65,19.94,19.94,0,0,1-14.1-34.1,18.92,18.92,0,0,1,14.1-5.9,19.57,19.57,0,0,1,7.8,1.55,20.74,20.74,0,0,1,6.4,4.35l-4.8,4.7A13.28,13.28,0,0,0,133,245a13.15,13.15,0,0,0,13.3,13.3A13.61,13.61,0,0,0,151.85,257.18Zm-5.55-8.8v-6.65H163l-6.65,6.65Z" transform="translate(-2.12)"/><path d="M191,225a20.23,20.23,0,0,1,20.05,20,19,19,0,0,1-6,14.1A19.94,19.94,0,1,1,191,225Zm0,6.7a13.32,13.32,0,1,0,9.4,3.9A12.84,12.84,0,0,0,191,231.73Z" transform="translate(-2.12)"/><path d="M241.69,245.88a12.9,12.9,0,0,1-5.85,4.8L244,265h-7.65l-11.6-20,6,.05a6.74,6.74,0,0,0,6.65-6.7,6.21,6.21,0,0,0-2-4.65,6.35,6.35,0,0,0-4.65-2H217.39l-.75-.75L213.19,225h17.55a13.32,13.32,0,0,1,13.3,13.3A12.64,12.64,0,0,1,241.69,245.88Z" transform="translate(-2.12)"/><path d="M260.94,231.63v26.7l-6.65,6.7h0V225Z" transform="translate(-2.12)"/><path d="M270.94,225h20v6.7h-13.3V265h-6.7V225Z" transform="translate(-2.12)"/><path d="M341.1,234.33V225l20,20,20-20v40h-6.6v-23.9l-13.4,13.35Z" transform="translate(-2.12)"/><path d="M417.8,248.38h6.65a15.93,15.93,0,0,1-4.9,11.8,16.63,16.63,0,0,1-28.4-11.8V225h6.65v23.35a9.94,9.94,0,0,0,17,7A9.65,9.65,0,0,0,417.8,248.38Z" transform="translate(-2.12)"/><path d="M451.79,248.41h-10a11.24,11.24,0,0,1-8.25-3.4,11.44,11.44,0,0,1-3.4-8.3,11.29,11.29,0,0,1,3.4-8.2,11.1,11.1,0,0,1,8.25-3.45v6.7a5,5,0,0,0-1.95.35,4.56,4.56,0,0,0-1.65,1.1,5.14,5.14,0,0,0,0,7,4.83,4.83,0,0,0,3.6,1.5h10a11.65,11.65,0,1,1,0,23.3v-6.7a5,5,0,0,0,1.95-.35,4.67,4.67,0,0,0,1.65-1.05,4.46,4.46,0,0,0,1.05-1.6,5,5,0,0,0,.4-2,5,5,0,0,0-1.5-3.5A4.8,4.8,0,0,0,451.79,248.41Z" transform="translate(-2.12)"/><path d="M325.1,225.06h6.65v40H325.1V248.41h-20v16.65h-6.65V248.41l6.65-6.7h20Z" transform="translate(-2.12)"/><path d="M266.21,107.28c-8.53-16.91-17-33.66-25.43-50.43l5-10c11.56,23,23.05,45.81,34.58,68.75H230.53c1.79-2.8,3.53-5.52,5.29-8.29Z" transform="translate(-2.12)" style="opacity:0.9"/><path d="M211.22,115.6c8.09-16.09,16.13-32.07,24.24-48.18l5,10.07-6.86,13.67h12.08l4.95,8H229.57l-8.24,16.4Z" transform="translate(-2.12)" style="opacity:0.9"/><path d="M308,133.26h-3.13l-67,0a48.89,48.89,0,0,1-48.92-42.9C185.48,64,205.22,38.87,231.72,36.09a66.49,66.49,0,0,1,6.91-.36q33.08,0,66.15,0h3.32c-.88-1-1.31-1.61-1.81-2.11q-9-9.07-18.12-18.11c-2.83-2.82-5.08-2.8-7.94,0-2.09,2.07-4.2,4.12-6.22,6.25a2.45,2.45,0,0,1-3.29.58q-6.3-2.85-12.79-5.29a2.68,2.68,0,0,1-2.11-2.87c0-3.15,0-6.31,0-9.45C255.72,1.47,254.31,0,251,0q-13.53,0-27.08,0c-3.34,0-4.7,1.42-4.78,4.75s-.11,6.44-.11,9.66c0,1.49-.73,2.16-2.1,2.69-4.3,1.66-8.57,3.41-12.77,5.31a2.48,2.48,0,0,1-3.31-.56c-2.13-2.22-4.33-4.38-6.54-6.53-2.51-2.44-4.82-2.45-7.31,0Q177.7,24.66,168.46,34c-2.64,2.67-2.62,4.78,0,7.42,2.16,2.21,4.31,4.41,6.53,6.55a2.41,2.41,0,0,1,.59,3.14c-1.92,4.34-3.71,8.75-5.45,13.16a2.51,2.51,0,0,1-2.63,1.9q-4.72,0-9.45,0c-3.33,0-5,1.59-5,4.86q-.09,13.44,0,26.88c0,3.3,1.67,4.88,4.95,4.93s6.3.06,9.45,0c1.51,0,2.2.67,2.73,2,1.67,4.3,3.41,8.58,5.3,12.78.65,1.46.59,2.4-.57,3.5-2.28,2.16-4.49,4.42-6.67,6.69s-2.31,4.51-.05,6.81q9.59,9.72,19.29,19.32c2,2,4.44,2,6.53,0,2.38-2.27,4.71-4.6,7-7a2.38,2.38,0,0,1,3.14-.5q6.3,2.84,12.77,5.32c1.47.56,2.18,1.29,2.18,2.85,0,3.08,0,6.16.1,9.24.06,3.65,1.35,5,4.92,5q13.32.07,26.66,0c3.69,0,5-1.4,5.08-5.13q.06-4.62,0-9.24a2.57,2.57,0,0,1,2-2.71q6.56-2.51,13-5.38a2.36,2.36,0,0,1,3.11.59c2.29,2.37,4.6,4.71,7,7a4.39,4.39,0,0,0,6.56,0c6.58-6.49,13.09-13,19.62-19.59A12.26,12.26,0,0,0,308,133.26Z" transform="translate(-2.12)" style="fill:#191919"/><path d="M283.4,45.47c16,0,32.05,0,48.08-.11a6,6,0,0,0,3.59-1.15c3.77-3.15,8.56-3.2,11.72.11a8.14,8.14,0,0,1,0,11.22c-3.13,3.25-7.88,3.27-11.54.18a4.83,4.83,0,0,0-2.74-1.21c-5.11-.13-10.22-.06-15.33-.1-1.9,0-2.06.75-1.39,2.35,1,2.38,1.78,4.86,2.67,7.29.5,1.35-.14,2-1.36,1.7a8.66,8.66,0,0,1-3-1.61,8.28,8.28,0,0,0-11.11,12.24,8.13,8.13,0,0,0,11.21.48,5.68,5.68,0,0,1,4.15-1.51c13.23,0,26.46,0,39.69,0a6,6,0,0,0,4.33-1.56,8,8,0,0,1,11.19.56,8.18,8.18,0,0,1,0,11.08,8,8,0,0,1-11.18.58A5.91,5.91,0,0,0,358,84.48c-12.74,0-25.48,0-38.22,0A5.68,5.68,0,0,1,315.61,83a8.16,8.16,0,0,0-11.52.64,8.26,8.26,0,0,0,.13,11.26c3.11,3.28,7.93,3.39,11.59.47A6.71,6.71,0,0,1,319.52,94c5.17-.16,10.36,0,15.53-.14a5.48,5.48,0,0,0,3.14-1.21c3.63-3,8.45-2.94,11.56.32a8.14,8.14,0,0,1-.08,11.22c-3.15,3.24-7.91,3.24-11.54.09a4.11,4.11,0,0,0-2.33-1.14c-5-.11-10.08-.12-15.12,0a2.68,2.68,0,0,0-2,1.38c-1.18,2.76-2.12,5.63-3.19,8.44-.4,1-.17,1.67,1,1.7,2.27,0,4.42.31,6.42-1.61,3.09-3,8-2.5,11,.63a8.1,8.1,0,0,1,0,11.06,7.8,7.8,0,0,1-11,.64,6.63,6.63,0,0,0-4.93-1.7c-11.48,0-23,0-34.44,0H281c11.86-10.58,18.56-23.24,18.59-39S292.85,56.07,281,45.47ZM348,98.34a4.22,4.22,0,0,0-4.21-4.06A4.14,4.14,0,1,0,348,98.34Zm-15.9,20.85A4.14,4.14,0,1,0,328,123.3,4.11,4.11,0,0,0,332.1,119.19Zm13.15-69.38A4.12,4.12,0,1,0,341.19,54,4.08,4.08,0,0,0,345.25,49.81Zm18.19,30.12a4.12,4.12,0,0,0,8.23-.1,4.12,4.12,0,0,0-4.16-4.1A4.17,4.17,0,0,0,363.44,79.93Z" transform="translate(-2.12)" style="fill:#191919"/><path d="M310.53,85.59a4,4,0,0,1,4,3.82,3.93,3.93,0,0,1-7.86.26A4,4,0,0,1,310.53,85.59Z" transform="translate(-2.12)" style="opacity:0.9"/><path d="M309.62,66.45a3.92,3.92,0,0,1-.08,7.83,3.93,3.93,0,0,1-3.89-4.07A3.87,3.87,0,0,1,309.62,66.45Z" transform="translate(-2.12)" style="opacity:0.9"/><rect x="415.67" y="237.05" width="6.67" height="13.33"/><rect x="438.59" y="225.03" width="6.7" height="6.7"/><rect x="440.59" y="258.33" width="10.05" height="6.7"/><path d="M2.12,311.41V294.52H3.78v16.89Z" transform="translate(-2.12)" style="fill:#030303"/><path d="M18.11,311.41H16.49v-6.88a6.06,6.06,0,0,0-.64-3.18,2.22,2.22,0,0,0-2-1,4.14,4.14,0,0,0-1.88.46,5.19,5.19,0,0,0-1.63,1.25,4.69,4.69,0,0,0-1,1.81v7.54H7.69V299.06H9.16v2.82a5.67,5.67,0,0,1,1.31-1.58,6.24,6.24,0,0,1,3.95-1.43,3.73,3.73,0,0,1,1.74.38,2.82,2.82,0,0,1,1.14,1.08,4.9,4.9,0,0,1,.62,1.68,11.24,11.24,0,0,1,.19,2.19Z" transform="translate(-2.12)" style="fill:#030303"/><path d="M20.73,305.29a7,7,0,0,1,.73-3.21,5.92,5.92,0,0,1,2-2.33,5.2,5.2,0,0,1,5.7-.06,6.23,6.23,0,0,1,1.91,2V294H32.7v15.42a.73.73,0,0,0,.14.49.68.68,0,0,0,.43.18v1.28a3,3,0,0,1-.74,0,1.3,1.3,0,0,1-.88-.4,1.18,1.18,0,0,1-.38-.84V309a5.45,5.45,0,0,1-2,1.93,5.28,5.28,0,0,1-2.61.71,5.35,5.35,0,0,1-2.37-.52,6,6,0,0,1-1.88-1.42,6.7,6.7,0,0,1-1.68-4.42Zm10.35,1.89v-3.81a4.21,4.21,0,0,0-1-1.55,5.69,5.69,0,0,0-1.56-1.11,4,4,0,0,0-1.72-.41,4,4,0,0,0-1.81.41,4.33,4.33,0,0,0-1.39,1.13,4.92,4.92,0,0,0-.89,1.6,5.57,5.57,0,0,0-.31,1.85,5.23,5.23,0,0,0,.34,1.89,5,5,0,0,0,1,1.59,4.66,4.66,0,0,0,1.47,1.08,4.37,4.37,0,0,0,1.81.37A3.83,3.83,0,0,0,28.3,310a5.86,5.86,0,0,0,1.27-.65,3.93,3.93,0,0,0,1-1A2.71,2.71,0,0,0,31.08,307.18Z" transform="translate(-2.12)" style="fill:#030303"/><path d="M36.37,296.42V294H38v2.38Zm0,15V299H38v12.4Z" transform="translate(-2.12)" style="fill:#030303"/><path d="M40.55,307.87a3.15,3.15,0,0,1,.67-2,4.33,4.33,0,0,1,1.85-1.3,7.35,7.35,0,0,1,2.72-.46,13.78,13.78,0,0,1,1.88.14,8.86,8.86,0,0,1,1.74.43v-1.05a3.34,3.34,0,0,0-.93-2.48,3.51,3.51,0,0,0-2.57-.92,5.33,5.33,0,0,0-2,.37,9.31,9.31,0,0,0-2,1.08l-.61-1.14a10.32,10.32,0,0,1,2.38-1.25,6.94,6.94,0,0,1,2.38-.42,4.93,4.93,0,0,1,3.61,1.3,4.81,4.81,0,0,1,1.34,3.6v5.7a.66.66,0,0,0,.14.48.69.69,0,0,0,.45.18v1.28l-.45,0a.69.69,0,0,1-.29,0,1.16,1.16,0,0,1-.9-.38,1.21,1.21,0,0,1-.33-.76l0-.9a5.5,5.5,0,0,1-2.16,1.65,6.72,6.72,0,0,1-2.72.58,4.52,4.52,0,0,1-2.15-.51,3.83,3.83,0,0,1-1.5-1.37A3.5,3.5,0,0,1,40.55,307.87Zm8.31.94a2.68,2.68,0,0,0,.4-.64,1.23,1.23,0,0,0,.15-.54v-1.79a9.49,9.49,0,0,0-1.68-.47A9.35,9.35,0,0,0,46,305.2a5.13,5.13,0,0,0-2.81.69,2.1,2.1,0,0,0-1.07,1.86,2.49,2.49,0,0,0,.36,1.29,2.72,2.72,0,0,0,1,1,3.2,3.2,0,0,0,1.61.38A5.28,5.28,0,0,0,47.3,310,3.9,3.9,0,0,0,48.86,308.81Z" transform="translate(-2.12)" style="fill:#030303"/><path d="M65,311.41H63.33v-6.88a6.06,6.06,0,0,0-.64-3.18,2.23,2.23,0,0,0-2-1,4.11,4.11,0,0,0-1.88.46,5.08,5.08,0,0,0-1.63,1.25,4.85,4.85,0,0,0-1,1.81v7.54H54.53V299.06H56v2.82a5.5,5.5,0,0,1,1.31-1.58,6.24,6.24,0,0,1,3.95-1.43,3.73,3.73,0,0,1,1.74.38,3,3,0,0,1,1.14,1.08,4.9,4.9,0,0,1,.62,1.68A11.24,11.24,0,0,1,65,304.2Z" transform="translate(-2.12)" style="fill:#030303"/><path d="M74.8,311.41V294.52h1.67v16.89Z" transform="translate(-2.12)" style="fill:#030303"/><path d="M90.8,311.41H89.18v-6.88a6,6,0,0,0-.65-3.18,2.21,2.21,0,0,0-2-1,4.17,4.17,0,0,0-1.88.46A5.19,5.19,0,0,0,83,302.06a4.83,4.83,0,0,0-1,1.81v7.54H80.37V299.06h1.48v2.82a5.5,5.5,0,0,1,1.31-1.58,6.24,6.24,0,0,1,4-1.43,3.66,3.66,0,0,1,1.73.38A2.91,2.91,0,0,1,90,300.33a5.11,5.11,0,0,1,.62,1.68,12.07,12.07,0,0,1,.19,2.19Z" transform="translate(-2.12)" style="fill:#030303"/><path d="M98.32,311.65a7.78,7.78,0,0,1-2.84-.5,6,6,0,0,1-2.26-1.52l.67-1.14A7.08,7.08,0,0,0,96,309.9a5.63,5.63,0,0,0,2.24.44,4.36,4.36,0,0,0,2.36-.57,1.87,1.87,0,0,0,.9-1.67,1.39,1.39,0,0,0-.44-1.12,3.23,3.23,0,0,0-1.26-.64c-.54-.17-1.2-.34-2-.53a15,15,0,0,1-2.15-.75,3.18,3.18,0,0,1-1.31-1,2.59,2.59,0,0,1-.44-1.58,3.23,3.23,0,0,1,.6-2,3.72,3.72,0,0,1,1.67-1.2,6.41,6.41,0,0,1,2.37-.42,6.59,6.59,0,0,1,2.52.45,4.81,4.81,0,0,1,1.79,1.27l-.79,1.09a4.11,4.11,0,0,0-1.58-1.13,5.61,5.61,0,0,0-3.49-.17,2.59,2.59,0,0,0-1.13.66,1.78,1.78,0,0,0-.44,1.27,1.5,1.5,0,0,0,.33,1,2.59,2.59,0,0,0,1,.61c.45.17,1,.35,1.64.54.94.25,1.76.5,2.46.76a4.16,4.16,0,0,1,1.61,1,2.41,2.41,0,0,1,.58,1.73,3.16,3.16,0,0,1-1.31,2.69A5.66,5.66,0,0,1,98.32,311.65Z" transform="translate(-2.12)" style="fill:#030303"/><path d="M111.69,310.91l-.59.27a6.57,6.57,0,0,1-1,.33,5.35,5.35,0,0,1-1.24.14,3.27,3.27,0,0,1-1.29-.26,2.18,2.18,0,0,1-1-.8,2.34,2.34,0,0,1-.36-1.33v-8.91h-1.71v-1.29h1.71v-4.19h1.62v4.19h2.86v1.29h-2.86v8.46a1.36,1.36,0,0,0,.49,1,1.65,1.65,0,0,0,1,.33,3.19,3.19,0,0,0,1.22-.22,4,4,0,0,0,.66-.32Z" transform="translate(-2.12)" style="fill:#030303"/><path d="M113.71,296.42V294h1.62v2.38Zm0,15V299h1.62v12.4Z" transform="translate(-2.12)" style="fill:#030303"/><path d="M124.85,310.91l-.59.27a6.57,6.57,0,0,1-1,.33,5.35,5.35,0,0,1-1.24.14,3.27,3.27,0,0,1-1.29-.26,2.18,2.18,0,0,1-1-.8,2.33,2.33,0,0,1-.35-1.33v-8.91h-1.72v-1.29h1.72v-4.19H121v4.19h2.86v1.29H121v8.46a1.36,1.36,0,0,0,.49,1,1.65,1.65,0,0,0,1,.33,3.19,3.19,0,0,0,1.22-.22,4,4,0,0,0,.66-.32Z" transform="translate(-2.12)" style="fill:#030303"/><path d="M126.76,306.32v-7.26h1.61v7a5.55,5.55,0,0,0,.73,3.15,2.43,2.43,0,0,0,2.15,1,4.3,4.3,0,0,0,1.85-.41,5,5,0,0,0,1.58-1.18,5.35,5.35,0,0,0,1-1.79v-7.78h1.62v10.41a.56.56,0,0,0,.57.66v1.28l-.45,0h-.31a1.33,1.33,0,0,1-.82-.38,1.14,1.14,0,0,1-.37-.8l-.05-1.66a5.89,5.89,0,0,1-2.2,2.23,6,6,0,0,1-3,.8,3.43,3.43,0,0,1-3-1.35A6.62,6.62,0,0,1,126.76,306.32Z" transform="translate(-2.12)" style="fill:#030303"/><path d="M147,310.91l-.59.27a6.57,6.57,0,0,1-1,.33,5.35,5.35,0,0,1-1.24.14,3.27,3.27,0,0,1-1.29-.26,2.18,2.18,0,0,1-1-.8,2.33,2.33,0,0,1-.35-1.33v-8.91h-1.72v-1.29h1.72v-4.19h1.61v4.19H146v1.29h-2.86v8.46a1.36,1.36,0,0,0,.49,1,1.65,1.65,0,0,0,1,.33,3.19,3.19,0,0,0,1.22-.22,4,4,0,0,0,.66-.32Z" transform="translate(-2.12)" style="fill:#030303"/><path d="M154.13,311.65a6,6,0,0,1-2.48-.51,5.9,5.9,0,0,1-2-1.4,6.34,6.34,0,0,1-1.3-2.05,6.61,6.61,0,0,1-.47-2.49,6.42,6.42,0,0,1,.8-3.16,6.25,6.25,0,0,1,2.2-2.31,6,6,0,0,1,3.19-.86,5.76,5.76,0,0,1,3.2.88,6.27,6.27,0,0,1,2.16,2.3,6.43,6.43,0,0,1,.78,3.13v.37a1.65,1.65,0,0,1,0,.27H149.6a5.38,5.38,0,0,0,.75,2.36,4.77,4.77,0,0,0,1.65,1.63,4.2,4.2,0,0,0,2.2.6,4.54,4.54,0,0,0,2.29-.61,3.48,3.48,0,0,0,1.52-1.62l1.4.38a4.43,4.43,0,0,1-1.17,1.59,5.52,5.52,0,0,1-1.84,1.11A6.52,6.52,0,0,1,154.13,311.65Zm-4.57-7h9.16a5,5,0,0,0-.73-2.36,4.52,4.52,0,0,0-6.08-1.59,4.62,4.62,0,0,0-1.63,1.6A5.07,5.07,0,0,0,149.56,304.66Z" transform="translate(-2.12)" style="fill:#030303"/><path d="M174.09,311.65a5.89,5.89,0,0,1-2.46-.51,6,6,0,0,1-1.95-1.39,6.63,6.63,0,0,1-1.73-4.46,6.55,6.55,0,0,1,.46-2.48,6.24,6.24,0,0,1,3.24-3.43,6,6,0,0,1,2.47-.51,5.87,5.87,0,0,1,2.45.51,6.26,6.26,0,0,1,3.23,3.43,6.55,6.55,0,0,1,.46,2.48,6.63,6.63,0,0,1-1.73,4.46,6,6,0,0,1-1.95,1.39A6,6,0,0,1,174.09,311.65Zm-4.5-6.34a5.21,5.21,0,0,0,.61,2.49,4.72,4.72,0,0,0,1.63,1.77,4.23,4.23,0,0,0,4.52,0,4.82,4.82,0,0,0,1.65-1.81,5.33,5.33,0,0,0,0-5,4.86,4.86,0,0,0-1.65-1.8,4.07,4.07,0,0,0-2.26-.66,4,4,0,0,0-2.25.68,5.28,5.28,0,0,0-1.63,1.81A5.17,5.17,0,0,0,169.59,305.31Z" transform="translate(-2.12)" style="fill:#030303"/><path d="M183.35,311.41V300.3h-1.71V299h1.71v-.33a7.11,7.11,0,0,1,.44-2.62,3.71,3.71,0,0,1,1.26-1.68,3.34,3.34,0,0,1,1.94-.58,4.59,4.59,0,0,1,1.43.22,4,4,0,0,1,1.19.57l-.5,1.16a2,2,0,0,0-.81-.4,3.4,3.4,0,0,0-1-.14,2,2,0,0,0-1.72.88,4.39,4.39,0,0,0-.61,2.54V299h3.43v1.29H185v11.11Z" transform="translate(-2.12)" style="fill:#030303"/><path d="M196.49,311.41V294.52h1.67v16.89Z" transform="translate(-2.12)" style="fill:#030303"/><path d="M212.48,311.41h-1.62v-6.88a6.06,6.06,0,0,0-.64-3.18,2.22,2.22,0,0,0-2-1,4.14,4.14,0,0,0-1.88.46,5.19,5.19,0,0,0-1.63,1.25,4.69,4.69,0,0,0-1,1.81v7.54h-1.62V299.06h1.47v2.82a5.67,5.67,0,0,1,1.31-1.58,6.24,6.24,0,0,1,3.95-1.43,3.73,3.73,0,0,1,1.74.38,2.82,2.82,0,0,1,1.14,1.08,4.9,4.9,0,0,1,.62,1.68,11.24,11.24,0,0,1,.19,2.19Z" transform="translate(-2.12)" style="fill:#030303"/><path d="M216.41,311.41V300.3H214.7V299h1.71v-.33a7.11,7.11,0,0,1,.44-2.62,3.64,3.64,0,0,1,1.26-1.68,3.32,3.32,0,0,1,1.94-.58,4.59,4.59,0,0,1,1.43.22,4,4,0,0,1,1.19.57l-.5,1.16a2.19,2.19,0,0,0-.81-.4,3.45,3.45,0,0,0-1-.14,2,2,0,0,0-1.73.88,4.47,4.47,0,0,0-.6,2.54V299h3.43v1.29H218v11.11Z" transform="translate(-2.12)" style="fill:#030303"/><path d="M228.57,311.65a6,6,0,0,1-4.41-1.9,6.35,6.35,0,0,1-1.28-2,6.54,6.54,0,0,1-.45-2.42,6.75,6.75,0,0,1,.45-2.48,6.27,6.27,0,0,1,1.29-2,6.11,6.11,0,0,1,2-1.4,6.19,6.19,0,0,1,4.92,0,6.29,6.29,0,0,1,1.95,1.4,6.41,6.41,0,0,1,1.28,2,6.75,6.75,0,0,1,.45,2.48,6.54,6.54,0,0,1-.45,2.42,6.32,6.32,0,0,1-1.27,2,6,6,0,0,1-4.44,1.9Zm-4.5-6.34a5.1,5.1,0,0,0,.61,2.49,4.64,4.64,0,0,0,1.63,1.77,4.23,4.23,0,0,0,4.52,0,4.79,4.79,0,0,0,1.64-1.81,5.33,5.33,0,0,0,0-5,4.84,4.84,0,0,0-1.64-1.8,4.07,4.07,0,0,0-2.26-.66,4,4,0,0,0-2.25.68,5.17,5.17,0,0,0-2.25,4.33Z" transform="translate(-2.12)" style="fill:#030303"/><path d="M243.64,300.44a5.14,5.14,0,0,0-2.85.91,4.47,4.47,0,0,0-1.72,2.35v7.71h-1.62V299.06H239V302a6,6,0,0,1,1.7-2.12,4.2,4.2,0,0,1,2.25-.9l.42,0a1.26,1.26,0,0,1,.3,0Z" transform="translate(-2.12)" style="fill:#030303"/><path d="M264.25,311.41h-1.62v-6.88a5.76,5.76,0,0,0-.69-3.17,2.32,2.32,0,0,0-2.05-1,3.68,3.68,0,0,0-2.51,1,5.3,5.3,0,0,0-1.56,2.55v7.52H254.2v-6.88a5.94,5.94,0,0,0-.66-3.18,2.29,2.29,0,0,0-2-1,3.71,3.71,0,0,0-2.5,1,5.13,5.13,0,0,0-1.57,2.55v7.54H245.8V299.06h1.48v2.82a5.82,5.82,0,0,1,2-2.23,5,5,0,0,1,2.72-.78,3.52,3.52,0,0,1,2.5.88,3.73,3.73,0,0,1,1.17,2.29,6.51,6.51,0,0,1,2.06-2.36,4.76,4.76,0,0,1,2.72-.81,3.87,3.87,0,0,1,1.78.38,2.94,2.94,0,0,1,1.16,1.08A4.71,4.71,0,0,1,264,302a10.44,10.44,0,0,1,.21,2.19Z" transform="translate(-2.12)" style="fill:#030303"/><path d="M266.67,307.87a3.15,3.15,0,0,1,.67-2,4.29,4.29,0,0,1,1.84-1.3,7.44,7.44,0,0,1,2.73-.46,13.78,13.78,0,0,1,1.88.14,8.86,8.86,0,0,1,1.74.43v-1.05a3.34,3.34,0,0,0-.93-2.48,3.51,3.51,0,0,0-2.57-.92,5.33,5.33,0,0,0-2,.37,9.31,9.31,0,0,0-2,1.08l-.61-1.14a10.32,10.32,0,0,1,2.38-1.25,6.94,6.94,0,0,1,2.38-.42,4.93,4.93,0,0,1,3.61,1.3,4.81,4.81,0,0,1,1.34,3.6v5.7a.66.66,0,0,0,.14.48.69.69,0,0,0,.45.18v1.28l-.45,0a.69.69,0,0,1-.29,0,1.16,1.16,0,0,1-.9-.38,1.21,1.21,0,0,1-.33-.76l0-.9a5.5,5.5,0,0,1-2.16,1.65,6.72,6.72,0,0,1-2.72.58,4.52,4.52,0,0,1-2.15-.51,3.83,3.83,0,0,1-1.5-1.37A3.5,3.5,0,0,1,266.67,307.87Zm8.31.94a3,3,0,0,0,.4-.64,1.23,1.23,0,0,0,.15-.54v-1.79a9.49,9.49,0,0,0-1.68-.47,9.35,9.35,0,0,0-1.75-.17,5.13,5.13,0,0,0-2.81.69,2.1,2.1,0,0,0-1.07,1.86,2.49,2.49,0,0,0,.36,1.29,2.79,2.79,0,0,0,1.05,1,3.2,3.2,0,0,0,1.61.38,5.28,5.28,0,0,0,2.18-.44A3.9,3.9,0,0,0,275,308.81Z" transform="translate(-2.12)" style="fill:#030303"/><path d="M286.5,310.91l-.6.27a6.41,6.41,0,0,1-1,.33,5.35,5.35,0,0,1-1.24.14,3.35,3.35,0,0,1-1.3-.26,2.21,2.21,0,0,1-1-.8,2.34,2.34,0,0,1-.36-1.33v-8.91h-1.71v-1.29h1.71v-4.19h1.62v4.19h2.86v1.29h-2.86v8.46a1.33,1.33,0,0,0,.49,1,1.63,1.63,0,0,0,1,.33,3.23,3.23,0,0,0,1.22-.22,4,4,0,0,0,.66-.32Z" transform="translate(-2.12)" style="fill:#030303"/><path d="M288.52,296.42V294h1.62v2.38Zm0,15V299h1.62v12.4Z" transform="translate(-2.12)" style="fill:#030303"/><path d="M299,311.65a5.89,5.89,0,0,1-2.46-.51,6,6,0,0,1-1.95-1.39,6.63,6.63,0,0,1-1.73-4.46,6.55,6.55,0,0,1,.46-2.48,6.41,6.41,0,0,1,1.28-2,6.22,6.22,0,0,1,2-1.4,6,6,0,0,1,2.47-.51,5.84,5.84,0,0,1,2.45.51,6.29,6.29,0,0,1,1.95,1.4,6.44,6.44,0,0,1,1.29,2,6.75,6.75,0,0,1,.45,2.48,6.51,6.51,0,0,1-1.73,4.46,6,6,0,0,1-1.95,1.39A6,6,0,0,1,299,311.65Zm-4.49-6.34a5.21,5.21,0,0,0,.6,2.49,4.72,4.72,0,0,0,1.63,1.77,4.23,4.23,0,0,0,4.52,0,4.82,4.82,0,0,0,1.65-1.81,5.33,5.33,0,0,0,0-5,4.86,4.86,0,0,0-1.65-1.8,4.07,4.07,0,0,0-2.26-.66,4,4,0,0,0-2.25.68,5.28,5.28,0,0,0-1.63,1.81A5.16,5.16,0,0,0,294.5,305.31Z" transform="translate(-2.12)" style="fill:#030303"/><path d="M318.29,311.41h-1.61v-6.88a6,6,0,0,0-.65-3.18,2.21,2.21,0,0,0-2-1,4.17,4.17,0,0,0-1.88.46,5.19,5.19,0,0,0-1.63,1.25,4.83,4.83,0,0,0-1,1.81v7.54h-1.62V299.06h1.48v2.82a5.5,5.5,0,0,1,1.31-1.58,6,6,0,0,1,1.83-1.05,6.11,6.11,0,0,1,2.12-.38,3.66,3.66,0,0,1,1.73.38,2.91,2.91,0,0,1,1.15,1.08,4.9,4.9,0,0,1,.61,1.68,11.24,11.24,0,0,1,.19,2.19Z" transform="translate(-2.12)" style="fill:#030303"/><path d="M339.45,296h-6v15.42h-1.66V296h-6v-1.47h13.71Z" transform="translate(-2.12)" style="fill:#030303"/><path d="M344.33,311.65a6,6,0,0,1-2.47-.51,6,6,0,0,1-2-1.4,6.51,6.51,0,0,1-1.3-2.05,6.8,6.8,0,0,1-.46-2.49,6.42,6.42,0,0,1,.8-3.16,6.17,6.17,0,0,1,2.2-2.31,6,6,0,0,1,3.19-.86,5.76,5.76,0,0,1,3.2.88,6.25,6.25,0,0,1,2.15,2.3,6.33,6.33,0,0,1,.79,3.13v.37a.91.91,0,0,1,0,.27H339.81a5.38,5.38,0,0,0,.75,2.36,4.82,4.82,0,0,0,1.64,1.63,4.26,4.26,0,0,0,2.2.6,4.58,4.58,0,0,0,2.3-.61,3.45,3.45,0,0,0,1.51-1.62l1.41.38a4.68,4.68,0,0,1-1.17,1.59,5.52,5.52,0,0,1-1.84,1.11A6.58,6.58,0,0,1,344.33,311.65Zm-4.57-7h9.17a5.16,5.16,0,0,0-.73-2.36,4.54,4.54,0,0,0-1.64-1.59,4.49,4.49,0,0,0-2.23-.58,4.39,4.39,0,0,0-2.21.58,4.54,4.54,0,0,0-1.63,1.6A5.2,5.2,0,0,0,339.76,304.66Z" transform="translate(-2.12)" style="fill:#030303"/><path d="M358.33,311.65a6,6,0,0,1-2.49-.51,6.15,6.15,0,0,1-2-1.4,6.63,6.63,0,0,1-1.31-2.06,6.81,6.81,0,0,1-.46-2.47,6.5,6.5,0,0,1,.79-3.19,6,6,0,0,1,2.19-2.3,6.15,6.15,0,0,1,3.23-.85,5.88,5.88,0,0,1,3.07.8,4.94,4.94,0,0,1,2,2.15l-1.57.5a3.74,3.74,0,0,0-1.47-1.48,4.08,4.08,0,0,0-2.08-.54,4.15,4.15,0,0,0-2.26.64,4.59,4.59,0,0,0-1.63,1.75,5.11,5.11,0,0,0-.61,2.52,5.21,5.21,0,0,0,.62,2.53,5,5,0,0,0,1.64,1.81,4,4,0,0,0,2.26.67,4.41,4.41,0,0,0,2.87-1.05,2.37,2.37,0,0,0,.75-1.06l1.6.47a4.14,4.14,0,0,1-1.11,1.59,5.79,5.79,0,0,1-1.81,1.09A6.24,6.24,0,0,1,358.33,311.65Z" transform="translate(-2.12)" style="fill:#030303"/><path d="M376.44,311.41h-1.62v-6.88a5.48,5.48,0,0,0-.74-3.13,2.43,2.43,0,0,0-2.12-1,3.81,3.81,0,0,0-1.79.46,5,5,0,0,0-1.57,1.25,4.61,4.61,0,0,0-1,1.81v7.54H366V294h1.62v7.84a5.64,5.64,0,0,1,2.06-2.19,5.22,5.22,0,0,1,2.82-.82,4,4,0,0,1,1.82.38,3.07,3.07,0,0,1,1.22,1.1,5.28,5.28,0,0,1,.67,1.68,9.54,9.54,0,0,1,.22,2.17Z" transform="translate(-2.12)" style="fill:#030303"/><path d="M390.31,311.41h-1.62v-6.88a6.06,6.06,0,0,0-.64-3.18,2.22,2.22,0,0,0-2-1,4.14,4.14,0,0,0-1.88.46,5.19,5.19,0,0,0-1.63,1.25,4.69,4.69,0,0,0-1,1.81v7.54h-1.62V299.06h1.47v2.82a5.67,5.67,0,0,1,1.31-1.58,6.29,6.29,0,0,1,3.95-1.43,3.67,3.67,0,0,1,1.74.38,2.82,2.82,0,0,1,1.14,1.08,4.7,4.7,0,0,1,.62,1.68,11.24,11.24,0,0,1,.19,2.19Z" transform="translate(-2.12)" style="fill:#030303"/><path d="M399.05,311.65a6,6,0,0,1-2.47-.51,6,6,0,0,1-1.95-1.39,6.32,6.32,0,0,1-1.27-2,6.54,6.54,0,0,1-.45-2.42,6.75,6.75,0,0,1,.45-2.48,6.41,6.41,0,0,1,1.28-2,6.15,6.15,0,0,1,2-1.4,5.89,5.89,0,0,1,2.46-.51,5.81,5.81,0,0,1,2.45.51,6.07,6.07,0,0,1,2,1.4,6.27,6.27,0,0,1,1.29,2,6.75,6.75,0,0,1,.45,2.48,6.56,6.56,0,0,1-1.72,4.46,6,6,0,0,1-4.44,1.9Zm-4.5-6.34a5.1,5.1,0,0,0,.61,2.49,4.57,4.57,0,0,0,1.63,1.77,4.23,4.23,0,0,0,4.52,0,4.79,4.79,0,0,0,1.64-1.81,5.33,5.33,0,0,0,0-5,4.84,4.84,0,0,0-1.64-1.8,4.09,4.09,0,0,0-2.26-.66,4,4,0,0,0-2.25.68,5.17,5.17,0,0,0-2.25,4.33Z" transform="translate(-2.12)" style="fill:#030303"/><path d="M408,294h1.61v14.65a1.63,1.63,0,0,0,.34,1.22,1.2,1.2,0,0,0,.81.29,4.09,4.09,0,0,0,.85-.09l.74-.19.29,1.3a5.14,5.14,0,0,1-1.11.31,6.4,6.4,0,0,1-1.13.12,2.39,2.39,0,0,1-1.75-.64,2.36,2.36,0,0,1-.65-1.77Z" transform="translate(-2.12)" style="fill:#030303"/><path d="M419.68,311.65a6,6,0,0,1-4.41-1.9,6.35,6.35,0,0,1-1.28-2,6.54,6.54,0,0,1-.45-2.42,6.75,6.75,0,0,1,.45-2.48,6.27,6.27,0,0,1,1.29-2,6.11,6.11,0,0,1,2-1.4,6,6,0,0,1,2.47-.51,5.87,5.87,0,0,1,2.45.51,6.29,6.29,0,0,1,1.95,1.4,6.41,6.41,0,0,1,1.28,2,6.55,6.55,0,0,1,.46,2.48,6.63,6.63,0,0,1-1.73,4.46,6,6,0,0,1-1.95,1.39A6,6,0,0,1,419.68,311.65Zm-4.5-6.34a5.21,5.21,0,0,0,.61,2.49,4.72,4.72,0,0,0,1.63,1.77,4.23,4.23,0,0,0,4.52,0,4.71,4.71,0,0,0,1.64-1.81,5.33,5.33,0,0,0,0-5,4.76,4.76,0,0,0-1.64-1.8,4.07,4.07,0,0,0-2.26-.66,4,4,0,0,0-2.25.68,5.17,5.17,0,0,0-2.25,4.33Z" transform="translate(-2.12)" style="fill:#030303"/><path d="M433.53,311.65a5.2,5.2,0,0,1-2.33-.52,5.69,5.69,0,0,1-1.84-1.42,6.59,6.59,0,0,1-1.21-2,6.79,6.79,0,0,1-.42-2.36,7.14,7.14,0,0,1,.41-2.46,6.69,6.69,0,0,1,1.19-2.06,5.69,5.69,0,0,1,1.82-1.42,5.29,5.29,0,0,1,2.34-.51,4.85,4.85,0,0,1,2.77.8,7.39,7.39,0,0,1,2,2v-2.6h1.45v12.42a4.94,4.94,0,0,1-.82,2.88,5.13,5.13,0,0,1-2.22,1.77,7.76,7.76,0,0,1-3,.59,6.76,6.76,0,0,1-3.43-.76,6.26,6.26,0,0,1-2.14-2l1-.78a4.58,4.58,0,0,0,2,1.74,6.13,6.13,0,0,0,2.61.57,5.53,5.53,0,0,0,2.22-.44,3.52,3.52,0,0,0,2.23-3.47v-2.45a5.39,5.39,0,0,1-1.95,1.87A5.18,5.18,0,0,1,433.53,311.65Zm.45-1.35a3.78,3.78,0,0,0,1.42-.27,4.66,4.66,0,0,0,1.25-.7,4.23,4.23,0,0,0,1-1,2.7,2.7,0,0,0,.48-1.11v-3.84a4.83,4.83,0,0,0-1-1.6,4.77,4.77,0,0,0-1.51-1.1,4.1,4.1,0,0,0-1.75-.39,3.9,3.9,0,0,0-1.86.44,4.11,4.11,0,0,0-1.38,1.17,5.21,5.21,0,0,0-.87,1.63,5.41,5.41,0,0,0-.31,1.8,5.25,5.25,0,0,0,.35,1.9,5.45,5.45,0,0,0,1,1.59,4.51,4.51,0,0,0,1.48,1.09A4.36,4.36,0,0,0,434,310.3Z" transform="translate(-2.12)" style="fill:#030303"/><path d="M444,315.22l.64,0a1.41,1.41,0,0,0,.46,0,.93.93,0,0,0,.54-.33,4.19,4.19,0,0,0,.62-1.09c.24-.54.57-1.33,1-2.37l-5.4-12.37h1.71l4.55,10.71,4.19-10.71h1.62L447.48,315a3,3,0,0,1-.5.85,2.38,2.38,0,0,1-.82.61,3,3,0,0,1-1.2.25,2.16,2.16,0,0,1-.44,0,3,3,0,0,1-.54-.06Z" transform="translate(-2.12)" style="fill:#030303"/><path d="M461.93,311.41V294.52h1.66v9.82l9.31-9.85h1.83l-6.9,7.44,7.26,9.48h-1.88l-6.45-8.48-3.17,3.29v5.19Z" transform="translate(-2.12)" style="fill:#030303"/><path d="M481.44,311.65a6,6,0,0,1-4.41-1.9,6.35,6.35,0,0,1-1.28-2,6.54,6.54,0,0,1-.45-2.42,6.75,6.75,0,0,1,.45-2.48,6.27,6.27,0,0,1,1.29-2,6.11,6.11,0,0,1,2-1.4,6,6,0,0,1,2.47-.51,5.87,5.87,0,0,1,2.45.51,6.29,6.29,0,0,1,1.95,1.4,6.41,6.41,0,0,1,1.28,2,6.55,6.55,0,0,1,.46,2.48,6.63,6.63,0,0,1-1.73,4.46,6,6,0,0,1-4.44,1.9Zm-4.5-6.34a5.21,5.21,0,0,0,.61,2.49,4.72,4.72,0,0,0,1.63,1.77,4.23,4.23,0,0,0,4.52,0,4.79,4.79,0,0,0,1.64-1.81,5.33,5.33,0,0,0,0-5,4.84,4.84,0,0,0-1.64-1.8,4.07,4.07,0,0,0-2.26-.66,4,4,0,0,0-2.25.68,5.17,5.17,0,0,0-2.25,4.33Z" transform="translate(-2.12)" style="fill:#030303"/><path d="M496.08,310.91l-.6.27a6.41,6.41,0,0,1-1,.33,5.41,5.41,0,0,1-1.24.14,3.35,3.35,0,0,1-1.3-.26,2.21,2.21,0,0,1-1-.8,2.34,2.34,0,0,1-.36-1.33v-8.91h-1.71v-1.29h1.71v-4.19h1.62v4.19h2.86v1.29h-2.86v8.46a1.3,1.3,0,0,0,.49,1,1.63,1.63,0,0,0,1,.33,3.14,3.14,0,0,0,1.21-.22,3.82,3.82,0,0,0,.67-.32Z" transform="translate(-2.12)" style="fill:#030303"/><path d="M497.1,307.87a3.1,3.1,0,0,1,.67-2,4.29,4.29,0,0,1,1.84-1.3,7.44,7.44,0,0,1,2.73-.46,13.78,13.78,0,0,1,1.88.14,8.86,8.86,0,0,1,1.74.43v-1.05a3.34,3.34,0,0,0-.93-2.48,3.51,3.51,0,0,0-2.57-.92,5.42,5.42,0,0,0-2,.37,9.49,9.49,0,0,0-2,1.08l-.62-1.14a10.53,10.53,0,0,1,2.38-1.25,7,7,0,0,1,2.38-.42,4.94,4.94,0,0,1,3.62,1.3,4.8,4.8,0,0,1,1.33,3.6v5.7a.66.66,0,0,0,.15.48.67.67,0,0,0,.45.18v1.28l-.45,0a.69.69,0,0,1-.29,0,1.15,1.15,0,0,1-.9-.38,1.28,1.28,0,0,1-.34-.76l0-.9a5.53,5.53,0,0,1-2.17,1.65,6.64,6.64,0,0,1-2.71.58,4.52,4.52,0,0,1-2.15-.51,3.69,3.69,0,0,1-1.5-1.37A3.5,3.5,0,0,1,497.1,307.87Zm8.31.94a3,3,0,0,0,.4-.64,1.23,1.23,0,0,0,.15-.54v-1.79a9.49,9.49,0,0,0-1.68-.47,9.35,9.35,0,0,0-1.75-.17,5.11,5.11,0,0,0-2.81.69,2.1,2.1,0,0,0-1.07,1.86A2.49,2.49,0,0,0,499,309a2.69,2.69,0,0,0,1,1,3.23,3.23,0,0,0,1.62.38,5.31,5.31,0,0,0,2.18-.44A4,4,0,0,0,505.41,308.81Z" transform="translate(-2.12)" style="fill:#030303"/></g></g></svg>